<svg width="553" height="262" viewBox="0 0 553 262" fill="none" xmlns="http://www.w3.org/2000/svg">
<path d="M491.141 146L515.891 83H527.951L552.521 146H538.751L525.971 112.07C525.611 111.05 525.161 109.79 524.621 108.29C524.141 106.79 523.631 105.2 523.091 103.52C522.551 101.84 522.041 100.25 521.561 98.75C521.141 97.19 520.781 95.93 520.481 94.97L522.911 94.88C522.551 96.2 522.131 97.61 521.651 99.11C521.231 100.55 520.751 102.05 520.211 103.61C519.731 105.17 519.221 106.67 518.681 108.11C518.201 109.55 517.721 110.93 517.241 112.25L504.551 146H491.141ZM502.661 132.77L507.161 121.79H535.871L540.461 132.77H502.661Z" fill="#071F39"/>
<path d="M444.504 146V83H472.404C476.364 83 479.904 83.87 483.024 85.61C486.204 87.35 488.724 89.75 490.584 92.81C492.444 95.81 493.374 99.26 493.374 103.16C493.374 106.94 492.444 110.36 490.584 113.42C488.724 116.48 486.204 118.91 483.024 120.71C479.904 122.51 476.364 123.41 472.404 123.41H457.464V146H444.504ZM480.324 146L464.304 117.47L478.074 115.22L495.894 146.09L480.324 146ZM457.464 112.34H471.864C473.484 112.34 474.894 111.98 476.094 111.26C477.354 110.48 478.314 109.43 478.974 108.11C479.694 106.79 480.054 105.29 480.054 103.61C480.054 101.87 479.634 100.34 478.794 99.02C477.954 97.64 476.784 96.59 475.284 95.87C473.784 95.09 472.044 94.7 470.064 94.7H457.464V112.34Z" fill="#071F39"/>
<path d="M409.335 146.9C404.715 146.9 400.425 146.09 396.465 144.47C392.565 142.85 389.175 140.6 386.295 137.72C383.475 134.78 381.255 131.33 379.635 127.37C378.075 123.41 377.295 119.06 377.295 114.32C377.295 109.64 378.075 105.32 379.635 101.36C381.255 97.4 383.475 93.95 386.295 91.01C389.175 88.07 392.565 85.79 396.465 84.17C400.425 82.55 404.715 81.74 409.335 81.74C413.955 81.74 418.185 82.55 422.025 84.17C425.925 85.79 429.315 88.07 432.195 91.01C435.075 93.95 437.295 97.43 438.855 101.45C440.475 105.41 441.285 109.7 441.285 114.32C441.285 119 440.475 123.32 438.855 127.28C437.295 131.24 435.075 134.69 432.195 137.63C429.315 140.57 425.925 142.85 422.025 144.47C418.185 146.09 413.955 146.9 409.335 146.9ZM409.335 134.12C411.975 134.12 414.405 133.64 416.625 132.68C418.845 131.66 420.765 130.28 422.385 128.54C424.065 126.74 425.355 124.64 426.255 122.24C427.155 119.84 427.605 117.2 427.605 114.32C427.605 111.5 427.155 108.89 426.255 106.49C425.355 104.09 424.065 101.99 422.385 100.19C420.765 98.39 418.845 97.01 416.625 96.05C414.405 95.03 411.975 94.52 409.335 94.52C406.695 94.52 404.235 95.03 401.955 96.05C399.735 97.01 397.785 98.39 396.105 100.19C394.485 101.93 393.225 104.03 392.325 106.49C391.425 108.89 390.975 111.53 390.975 114.41C390.975 118.19 391.755 121.58 393.315 124.58C394.935 127.52 397.095 129.86 399.795 131.6C402.555 133.28 405.735 134.12 409.335 134.12Z" fill="#071F39"/>
<path d="M337.611 146V83H351.111V133.85H379.641V146H337.611Z" fill="#071F39"/>
<path d="M292.031 146V83H305.531V133.85H334.061V146H292.031Z" fill="#071F39"/>
<path d="M230.721 146L255.471 83H267.531L292.101 146H278.331L265.551 112.07C265.191 111.05 264.741 109.79 264.201 108.29C263.721 106.79 263.211 105.2 262.671 103.52C262.131 101.84 261.621 100.25 261.141 98.75C260.721 97.19 260.361 95.93 260.061 94.97L262.491 94.88C262.131 96.2 261.711 97.61 261.231 99.11C260.811 100.55 260.331 102.05 259.791 103.61C259.311 105.17 258.801 106.67 258.261 108.11C257.781 109.55 257.301 110.93 256.821 112.25L244.131 146H230.721ZM242.241 132.77L246.741 121.79H275.451L280.041 132.77H242.241Z" fill="#071F39"/>
<path d="M509.221 246V183H551.701V194.88H522.451V234.12H552.331V246H509.221ZM515.521 219.63V208.11H547.381V219.63H515.521Z" fill="#071F39"/>
<path d="M439.814 246V183H467.714C471.674 183 475.214 183.87 478.334 185.61C481.514 187.35 484.034 189.75 485.894 192.81C487.754 195.81 488.684 199.26 488.684 203.16C488.684 206.94 487.754 210.36 485.894 213.42C484.034 216.48 481.514 218.91 478.334 220.71C475.214 222.51 471.674 223.41 467.714 223.41H452.774V246H439.814ZM475.634 246L459.614 217.47L473.384 215.22L491.204 246.09L475.634 246ZM452.774 212.34H467.174C468.794 212.34 470.204 211.98 471.404 211.26C472.664 210.48 473.624 209.43 474.284 208.11C475.004 206.79 475.364 205.29 475.364 203.61C475.364 201.87 474.944 200.34 474.104 199.02C473.264 197.64 472.094 196.59 470.594 195.87C469.094 195.09 467.354 194.7 465.374 194.7H452.774V212.34Z" fill="#071F39"/>
<path d="M389.345 246.9C384.725 246.9 380.435 246.09 376.475 244.47C372.575 242.85 369.185 240.6 366.305 237.72C363.485 234.78 361.265 231.33 359.645 227.37C358.085 223.41 357.305 219.06 357.305 214.32C357.305 209.64 358.085 205.32 359.645 201.36C361.265 197.4 363.485 193.95 366.305 191.01C369.185 188.07 372.575 185.79 376.475 184.17C380.435 182.55 384.725 181.74 389.345 181.74C393.965 181.74 398.195 182.55 402.035 184.17C405.935 185.79 409.325 188.07 412.205 191.01C415.085 193.95 417.305 197.43 418.865 201.45C420.485 205.41 421.295 209.7 421.295 214.32C421.295 219 420.485 223.32 418.865 227.28C417.305 231.24 415.085 234.69 412.205 237.63C409.325 240.57 405.935 242.85 402.035 244.47C398.195 246.09 393.965 246.9 389.345 246.9ZM389.345 234.12C391.985 234.12 394.415 233.64 396.635 232.68C398.855 231.66 400.775 230.28 402.395 228.54C404.075 226.74 405.365 224.64 406.265 222.24C407.165 219.84 407.615 217.2 407.615 214.32C407.615 211.5 407.165 208.89 406.265 206.49C405.365 204.09 404.075 201.99 402.395 200.19C400.775 198.39 398.855 197.01 396.635 196.05C394.415 195.03 391.985 194.52 389.345 194.52C386.705 194.52 384.245 195.03 381.965 196.05C379.745 197.01 377.795 198.39 376.115 200.19C374.495 201.93 373.235 204.03 372.335 206.49C371.435 208.89 370.985 211.53 370.985 214.41C370.985 218.19 371.765 221.58 373.325 224.58C374.945 227.52 377.105 229.86 379.805 231.6C382.565 233.28 385.745 234.12 389.345 234.12Z" fill="#071F39"/>
<path d="M314.317 246V195.15H296.137V183H346.717V195.15H327.817V246H314.317Z" fill="#071F39"/>
<path d="M258.619 246.9C252.739 246.9 247.699 245.85 243.499 243.75C239.359 241.59 235.789 238.47 232.789 234.39L241.249 224.85C244.189 228.93 247.099 231.72 249.979 233.22C252.919 234.66 256.069 235.38 259.429 235.38C261.289 235.38 262.939 235.11 264.379 234.57C265.879 234.03 267.049 233.28 267.889 232.32C268.789 231.36 269.239 230.25 269.239 228.99C269.239 228.03 269.029 227.16 268.609 226.38C268.189 225.54 267.589 224.82 266.809 224.22C266.029 223.56 265.099 222.99 264.019 222.51C262.939 221.97 261.739 221.52 260.419 221.16C259.099 220.8 257.659 220.47 256.099 220.17C252.739 219.45 249.799 218.52 247.279 217.38C244.759 216.24 242.659 214.86 240.979 213.24C239.299 211.62 238.039 209.76 237.199 207.66C236.419 205.5 236.029 203.1 236.029 200.46C236.029 196.74 237.079 193.5 239.179 190.74C241.279 187.92 244.069 185.73 247.549 184.17C251.029 182.55 254.869 181.74 259.069 181.74C264.769 181.74 269.449 182.7 273.109 184.62C276.829 186.54 279.799 189.24 282.019 192.72L273.379 201.18C271.519 198.6 269.389 196.65 266.989 195.33C264.589 194.01 262.009 193.35 259.249 193.35C257.329 193.35 255.619 193.62 254.119 194.16C252.679 194.64 251.569 195.39 250.789 196.41C250.009 197.37 249.619 198.51 249.619 199.83C249.619 200.91 249.889 201.87 250.429 202.71C250.969 203.55 251.719 204.3 252.679 204.96C253.699 205.56 254.929 206.1 256.369 206.58C257.809 207.06 259.399 207.45 261.139 207.75C264.439 208.41 267.409 209.31 270.049 210.45C272.689 211.53 274.939 212.85 276.799 214.41C278.719 215.97 280.189 217.77 281.209 219.81C282.229 221.85 282.739 224.13 282.739 226.65C282.739 230.91 281.719 234.54 279.679 237.54C277.639 240.54 274.819 242.85 271.219 244.47C267.619 246.09 263.419 246.9 258.619 246.9Z" fill="#071F39"/>
<rect x="2.67578" y="57.2615" width="196.813" height="203.619" rx="55" fill="white"/>
<path d="M179.922 258.918C178.333 259.468 175.066 259.961 172.497 260.035C167.999 260.16 167.818 260.109 162.934 257.46C154.279 252.769 149.135 246.701 145.386 236.775C144.212 233.655 142.992 230.632 142.686 230.054C142.374 229.475 141.478 227.048 140.695 224.666C139.907 222.278 138.494 218.54 137.559 216.356C136.617 214.173 135.5 211.558 135.069 210.543L134.28 208.699H113.606C100.38 208.699 92.3597 208.484 91.3388 208.098C89.3026 207.327 86.6709 204.86 85.9392 203.028C85.6273 202.245 85.3947 200.231 85.4288 198.541C85.5082 194.196 88.0151 190.277 91.0269 189.778C92.1896 189.585 100.862 189.426 110.3 189.421C121.326 189.415 127.457 189.211 127.457 188.848C127.457 187.838 117.004 160.239 105.649 131.279C104.305 127.847 102.864 124.081 102.456 122.913C102.042 121.744 101.531 120.786 101.321 120.786C101.106 120.786 99.7161 123.911 98.2301 127.734C96.7384 131.557 93.046 140.807 90.0173 148.294C80.9934 170.607 74.1418 188.071 74.1418 188.752C74.1418 189.097 73.6427 190.476 73.0358 191.809C72.4232 193.147 71.1528 196.278 70.2112 198.774C69.2697 201.269 66.9329 207.264 65.0158 212.102C63.1044 216.941 60.9605 222.425 60.2515 224.297C54.3585 239.86 51.7097 244.67 45.8053 250.501C41.9485 254.312 37.74 257.001 32.9813 258.68C25.3016 261.385 15.3816 258.748 8.99513 252.287C4.25348 247.495 0.958128 240.717 0.152728 234.081C-0.289675 230.417 0.220798 229.957 1.7919 232.617C7.15178 241.692 19.2214 244.835 28.5176 239.577C33.73 236.627 36.5376 232.232 41.5344 219.215C42.856 215.772 46.0379 207.724 48.6072 201.326C58.289 177.192 69.0769 150.002 75.2705 134.115C87.6521 102.341 87.4366 102.84 89.9322 100.174C94.3335 95.4725 102.234 94.1793 108.337 97.1627C112.829 99.3634 114.69 101.989 117.849 110.577C118.825 113.225 119.862 115.857 120.163 116.424C120.458 116.986 121.859 120.559 123.277 124.365C124.695 128.165 126.493 132.935 127.276 134.966C130.633 143.672 131.467 145.855 134.224 153.115C135.823 157.324 137.479 161.538 137.91 162.474C138.767 164.334 144.132 178.122 145.408 181.758C145.845 183.006 146.957 185.813 147.87 187.997C148.783 190.181 150.575 194.9 151.863 198.49C153.145 202.08 154.557 205.841 154.999 206.856C155.442 207.871 157.223 212.465 158.964 217.065C164.148 230.791 164.92 232.43 167.551 235.357C170.512 238.652 175.798 241.466 179.95 241.953C186.404 242.719 194.101 239.242 197.504 234.024C198.44 232.583 199.353 231.404 199.535 231.398C199.988 231.381 199.064 237.994 198.27 240.462C195.593 248.805 188.52 255.917 179.922 258.918ZM59.1568 87.946C57.8863 88.5245 56.077 89.0066 55.1412 89.0123C52.5605 89.0293 48.6923 86.8457 47.1325 84.4862L45.7429 82.3819L45.7089 66.2796C45.6692 48.799 46.1853 43.9326 48.9078 36.1451C55.2433 18.0123 72.5934 3.62283 91.8606 0.526013C98.5364 -0.545964 108.973 0.0722675 115.149 1.90994C132.964 7.20176 146.815 21.1034 152.521 39.4178C153.65 43.0478 153.769 44.8514 153.973 61.7648C154.098 71.889 154.041 81.015 153.848 82.053C153.383 84.5315 150.161 87.6908 147.314 88.4565C144.456 89.2222 141.251 88.4451 138.806 86.3862C135.494 83.6014 135.449 83.3235 135.205 64.2661C134.961 45.1634 134.876 44.5962 131.325 37.807C128.665 32.7194 120.889 25.051 116.074 22.7653C110.736 20.2356 106.403 19.2601 100.516 19.2601C85.2019 19.2601 72.0205 28.4428 66.8535 42.6961C65.4129 46.6777 65.3732 47.1485 65.1973 63.2168C65.1009 72.2634 64.7776 80.5896 64.477 81.7183C63.717 84.5599 61.885 86.7095 59.1568 87.946Z" fill="#11243B"/>
<path d="M45.4999 260.903L55.7092 261.204L42.664 261.255C28.2802 261.311 24.3723 260.971 19.4832 259.252C18.6891 258.974 17.9234 258.674 17.1861 258.351C22.3758 260.534 28.1271 260.96 32.9822 259.247C37.7408 257.568 41.9493 254.879 45.8062 251.068C51.7106 245.237 54.3593 240.428 60.2523 224.864C54.7677 239.356 51.9544 245.209 48.4549 249.429C46.1011 252.265 39.0737 257.579 36.6689 258.339C36.0676 258.532 35.5742 258.923 35.5742 259.218C35.5742 259.508 35.5118 259.939 35.4324 260.171C35.353 260.404 39.8848 260.733 45.4999 260.903ZM153.89 56.0521L164.262 56.2518L171.131 56.5524H165.091C157.048 56.6998 155.879 56.8416 155.516 57.6981C154.722 59.5811 154.586 65.6613 155.301 67.0056C155.942 68.2023 155.919 68.2534 155.057 67.5444C154.189 66.8241 154.116 67.3572 154.116 74.5491C154.116 76.7271 154.082 78.491 153.979 79.943C154.059 76.3187 154.064 69.5806 153.974 62.332C153.89 56.0521 153.89 56.0521 153.89 56.0521ZM169.849 260.625C170.564 260.653 171.403 260.631 172.498 260.602C174.296 260.551 176.434 260.296 178.096 259.956C175.538 260.642 172.935 260.909 170.388 260.693C170.212 260.676 170.036 260.653 169.849 260.625ZM153.168 84.333C152.635 85.6602 151.83 86.5223 150.627 87.3845C149.986 87.8382 149.323 88.2125 148.648 88.5075C150.452 87.6113 152.21 85.9722 153.168 84.333ZM13.1761 256.241C9.12076 253.666 6.01259 250.166 3.64743 245.527C5.08808 248.232 6.89741 250.739 8.99599 252.855C10.2665 254.142 11.6731 255.271 13.1761 256.241ZM147.105 27.6827C140.923 17.1331 131.621 8.94299 120.408 4.33179C131.593 8.93164 140.94 17.0991 147.105 27.6827ZM151.875 249.111C149.192 245.861 147.264 242.311 145.387 237.342C147.162 242.044 149.249 245.878 151.875 249.111ZM154.654 252.123C156.98 254.335 159.663 256.246 162.816 257.965C159.912 256.411 156.963 254.363 154.825 252.287C154.768 252.231 154.711 252.18 154.654 252.123ZM195.872 246.366C196.864 244.67 197.675 242.878 198.271 241.029C198.673 239.764 199.116 237.421 199.388 235.431C199.116 237.416 198.685 239.758 198.282 241.029C197.692 242.889 196.875 244.676 195.872 246.366ZM143.991 89.2448C142.171 89.052 140.39 88.2863 138.807 86.9534C140.327 88.2352 142.148 89.0236 143.991 89.2448Z" fill="#E05B33"/>
<path d="M50.523 97.0266C51.5042 97.2819 54.2551 97.3953 56.6429 97.2819C60.0801 97.1231 61.515 96.7657 63.5682 95.5633C69.9434 91.8256 73.7435 84.0552 72.3709 77.5666C71.5145 73.5396 70.1646 71.0383 67.3797 68.3499L65.1677 66.2059C65.179 65.4062 65.1904 64.6008 65.1961 63.784C65.2301 60.9821 65.2528 58.651 65.2868 56.6942H135.079C135.124 58.9686 135.164 61.6401 135.203 64.8333C135.226 66.3817 135.243 67.811 135.26 69.1212C135.181 67.7543 135.067 66.9035 134.943 66.9035C134.075 66.9035 130.399 71.1801 129.101 73.7097C124.955 81.7864 130.167 93.1641 139.548 96.5162C144.159 98.161 149.111 97.6619 153.036 95.1493C162.247 89.2562 164.635 79.4099 158.94 70.7887C158.191 69.6487 156.796 68.3272 155.843 67.8564L155.69 67.777C155.616 67.6125 155.486 67.3573 155.299 67.0056C154.584 65.6614 154.72 59.5812 155.514 57.6981C155.877 56.8417 157.046 56.6999 165.088 56.5524L170.074 56.456C176.245 56.7793 178.338 57.5677 183.567 60.3639C189.642 63.6082 193.969 67.8337 196.408 72.8987C196.93 73.9877 197.378 74.8555 197.764 75.7516C200.106 81.1966 200.095 87.6568 199.942 150.756C199.936 153.921 199.93 157.227 199.919 160.687C199.817 204.865 199.743 223.503 199.471 231.994C199.193 232.181 198.359 233.275 197.503 234.591C194.1 239.809 186.403 243.286 179.949 242.521C175.797 242.033 170.511 239.22 167.55 235.924C164.918 232.998 164.147 231.358 158.963 217.633C157.222 213.033 155.441 208.438 154.998 207.423C154.556 206.408 153.144 202.648 151.862 199.057C150.574 195.467 148.782 190.748 147.869 188.564C146.956 186.381 145.844 183.573 145.407 182.325C144.131 178.69 138.765 164.901 137.909 163.041C137.478 162.105 135.822 157.891 134.222 153.683C131.466 146.423 130.632 144.239 127.274 135.533C126.492 133.502 124.694 128.732 123.276 124.932C121.858 121.126 120.457 117.553 120.162 116.992C119.861 116.424 118.823 113.793 117.848 111.144C114.688 102.557 112.828 99.9306 108.336 97.73C102.233 94.7466 94.3323 96.0398 89.9309 100.742C87.4353 103.407 87.6508 102.908 75.2692 134.682C69.0756 150.569 58.2878 177.76 48.6059 201.893C46.0366 208.291 42.8547 216.339 41.5332 219.782C36.5363 232.799 33.7287 237.195 28.5163 240.144C19.2202 245.402 7.15051 242.26 1.79062 233.185C1.2518 232.277 0.843426 231.733 0.548491 231.557C0.480429 231.494 0.361328 231.522 0.361328 231.426L0.395358 159.337C0.429389 83.3689 0.457736 81.1115 1.53538 77.9806C3.19723 73.1539 6.25436 68.52 10.1906 64.8787C16.7983 58.7588 23.6158 56.6942 37.2283 56.6942H45.788L45.9402 51.7314C46.0196 50.4893 46.133 49.2641 46.2805 48.0674C45.8097 52.4517 45.6906 58.0555 45.7076 66.8468L45.7133 71.2992C45.6282 68.9227 45.4524 67.4707 45.2312 67.4707C44.9306 67.4707 43.7849 68.3725 42.6846 69.4729C38.1414 74.0103 36.7915 80.0168 38.9979 85.8588C40.9376 90.9975 45.9288 95.8412 50.523 97.0266ZM45.4978 260.903C39.8827 260.733 35.3509 260.404 35.4303 260.171C35.5097 259.939 35.5721 259.508 35.5721 259.218C35.5721 258.923 36.0655 258.532 36.6667 258.339C39.0716 257.579 46.099 252.265 48.4528 249.429C51.9523 245.209 54.7656 239.356 60.2502 224.864C60.9592 222.992 63.1032 217.508 65.0146 212.67C66.9316 207.832 69.2684 201.836 70.21 199.341C71.1515 196.845 72.422 193.714 73.0345 192.376C73.6414 191.043 74.1405 189.665 74.1405 189.319C74.1405 188.905 76.6475 182.359 80.6234 172.315C76.4433 182.893 74.1405 189.018 74.1405 189.597C74.1405 190.385 75.1388 190.538 81.0885 190.686C84.9114 190.782 88.4165 190.731 88.8873 190.578C88.9951 190.538 89.5793 190.498 90.5321 190.459C87.7416 191.276 85.5012 195.008 85.4275 199.108C85.3935 200.799 85.626 202.812 85.938 203.595C86.6696 205.427 89.3014 207.894 91.3375 208.665C92.3585 209.051 100.378 209.267 113.605 209.267H134.279L135.067 211.11C135.498 212.125 136.616 214.74 137.557 216.924C138.493 219.107 139.905 222.845 140.694 225.233C141.477 227.615 142.373 230.043 142.685 230.621C142.991 231.2 144.21 234.223 145.384 237.342C147.16 242.044 149.247 245.878 151.873 249.111C152.741 250.178 153.665 251.176 154.652 252.123C154.709 252.18 154.766 252.231 154.822 252.287C156.961 254.363 159.91 256.411 162.814 257.965C162.854 257.988 162.893 258.005 162.933 258.027C166.625 260.029 167.629 260.546 169.847 260.625C170.034 260.653 170.21 260.676 170.386 260.693C170.715 260.721 171.044 260.738 171.373 260.75C164.26 261.062 88.5243 261.158 49.3319 261.016L45.4978 260.903ZM135.402 75.8083C135.567 81.0037 135.878 83.2327 136.684 84.6791C135.657 83.0115 135.425 80.7769 135.402 75.8083ZM64.6686 80.6634C64.8104 78.8257 64.9408 75.6835 65.0486 71.9288L65.0429 73.4545C65.0316 76.4379 64.9295 78.786 64.6686 80.6634ZM118.262 189.943C123.9 189.801 127.365 189.602 127.456 189.392C127.456 189.398 127.456 189.409 127.456 189.415C127.456 189.682 124.234 189.858 118.262 189.943ZM60.0233 88.0708C61.7362 87.1009 63.0237 85.7284 63.8405 84.0155C63.0805 85.9042 61.878 87.0839 60.0233 88.0708ZM160.942 56.2121L154.272 56.1271V56.076L160.942 56.2121ZM6.03316 249.48C4.95551 248.022 4.04801 246.474 3.19157 244.636C3.33904 244.931 3.49217 245.232 3.64531 245.527C4.3713 246.945 5.16537 248.26 6.03316 249.48ZM21.8859 260.001C19.9462 259.502 18.0745 258.816 16.3105 257.971C16.5998 258.101 16.889 258.232 17.184 258.351C17.9213 258.674 18.687 258.975 19.4811 259.252C20.2921 259.536 21.0805 259.786 21.8859 260.001ZM46.7116 84.4238L47.1313 85.0534C47.6587 85.8531 48.4528 86.6302 49.3716 87.3108C48.4698 86.6529 47.6984 85.9042 47.1766 85.1442C47.0008 84.8833 46.8477 84.6507 46.7116 84.4238ZM55.0718 89.5795C55.0945 89.5795 55.1172 89.5795 55.1399 89.5795C55.7184 89.5739 56.6316 89.3867 57.5447 89.1144C56.6429 89.3867 55.7468 89.5739 55.1796 89.5795C55.1399 89.5795 55.1059 89.5795 55.0718 89.5795ZM153.977 79.9771V79.9431C154.074 78.5138 154.113 76.7839 154.113 74.6626C154.113 76.8066 154.079 78.5421 153.977 79.9771ZM26.0774 260.773C25.6861 260.727 25.3004 260.676 24.909 260.619C25.2834 260.676 25.6747 260.727 26.0774 260.773Z" fill="#E05B33"/>
</svg>
